PathFileType	4	(X/Y/Z)	6_coords_data.trc
DataRate	CameraRate	NumFrames	NumMarkers	Units	OrigDataRate	OrigDataStartFrame	OrigNumFrames
30.0	30.0	9	21	m	30.0	48	66
Frame#	Time	THUMB_TIP	THUMB_IP	THUMB_MCP	THUMB_CMC	INDEX_TIP	INDEX_DIP	INDEX_PIP	INDEX_MCP	MIDDLE_TIP	MIDDLE_DIP	MIDDLE_PIP	MIDDLE_MCP	RING_TIP	RING_DIP	RING_PIP	RING_MCP	PINKY_TIP	PINKY_DIP	PINKY_PIP	PINKY_MCP	WRIST
X1	Y1	Z1	X2	Y2	Z2	X3	Y3	Z3	X4	Y4	Z4	X5	Y5	Z5	X6	Y6	Z6	X7	Y7	Z7	X8	Y8	Z8	X9	Y9	Z9	X10	Y10	Z10	X11	Y11	Z11	X12	Y12	Z12	X13	Y13	Z13	X14	Y14	Z14	X15	Y15	Z15	X16	Y16	Z16	X17	Y17	Z17	X18	Y18	Z18	X19	Y19	Z19	X20	Y20	Z20	X21	Y21	Z21
46	1.5666666666666598	0.5233915456929678	-0.0025099318680944505	-0.15695610526226006	0.5141168699252504	-0.008139588552338206	-0.13670055404731485	0.4899345974029835	-0.011781513344974681	-0.11744505926105703	0.47881734101790707	-0.02139776561030471	-0.07532826566470155	0.580464905003673	0.048354847466255735	-0.13668945647460357	0.5643264119000968	0.050509180466674186	-0.12875800706928447	0.5417957944273043	0.04850764138065611	-0.11778645519264289	0.5081221799894052	0.028817230150859574	-0.10069811149615726	0.5990799049177183	0.04910198174910385	-0.11066350776623987	0.5828913994420908	0.05136548303873856	-0.10286550466432992	0.5561226900775322	0.04983662010426282	-0.09144148054480954	0.5181397790298702	0.02995062436696383	-0.07887193151226599	0.6053938648226924	0.038286915262289445	-0.0833177325975756	0.5888907047495249	0.03889841333718702	-0.07608781021183686	0.5654312166475502	0.03629273145113354	-0.06814785939951994	0.5286234728622997	0.02066047843019303	-0.06218602269187275	0.5982639008154083	0.003962422310473612	-0.06266497475271546	0.5850795292838663	0.009457069673707852	-0.053231990194688925	0.565752047865116	0.012863075236037247	-0.04577145354393468	0.5307369950249885	0.004370876716610628	-0.047418295949789996	0.4622830810018609	-0.023011742144276925	-0.051989820119430985
47	1.599999999999993	0.523305460504322	-0.0017485414259353904	-0.15682474396999568	0.5143430338760929	-0.007736361429576233	-0.1365313726252041	0.49016689916679945	-0.01157861064177712	-0.1173071266969645	0.4788928086275588	-0.021371352530535792	-0.07527277064369349	0.580650554491439	0.051141662103945995	-0.1360861100980516	0.5643527268631164	0.05202340553996199	-0.12823733037694032	0.5418589577404334	0.048786681064323045	-0.11748726998993621	0.5082767302626024	0.02874363205059438	-0.10063063100523678	0.599603481380224	0.05289800036035053	-0.1090510326712143	0.5830008448068575	0.05340600334312029	-0.1018333881951949	0.5561052788065471	0.05019796812325572	-0.09107482929769115	0.5182681827673976	0.029831402002412633	-0.07883942702520706	0.6059331619086351	0.041462178483353096	-0.08085122095094857	0.589060662642067	0.04047952939582866	-0.07457801050728827	0.565484193605952	0.03644921411455171	-0.06764355699438468	0.5287351797456911	0.020473337332832964	-0.06225819021451759	0.5993811012040566	0.005692776362096086	-0.06093766734514285	0.5854089532282417	0.010356102652660404	-0.05221800744067061	0.5657184132123398	0.013022714834761362	-0.04543686945708404	0.5308036711869873	0.004223709503089479	-0.04753966413947783	0.4622830810018609	-0.023011742144276925	-0.051989820119430985
48	1.6333333333333262	0.52334766937475	-0.0010748297970724074	-0.15666320290771468	0.5144950191108021	-0.007313226296646658	-0.13639714773118064	0.4903206607984657	-0.011331638965380919	-0.11720671366077637	0.4789172481033497	-0.021309636457868764	-0.07525088277942243	0.5806442851786271	0.05340193060386034	-0.13543864887540888	0.5642751845419647	0.05331816538066536	-0.1276897439376644	0.5418313015175313	0.04914916639204714	-0.11715877080036802	0.5083209926901662	0.02879128659510588	-0.1005379396999719	0.5997404016705754	0.055849262670017	-0.1077492088018004	0.5829447922709373	0.05503793104786492	-0.10102245283077776	0.5560289695761194	0.050526375964323966	-0.09079533645374857	0.5183038618544554	0.029823274401347133	-0.07878093867184	0.6061196718981872	0.04370919211474822	-0.07902935763477585	0.5890923112487181	0.04160815722491651	-0.07349269422577026	0.5655036751238429	0.036563485357845815	-0.06730338808357472	0.5287933125220113	0.020369409092234725	-0.06232121932432757	0.6000628545939289	0.00704824873501031	-0.059759865352907005	0.5855900604851949	0.011100902710934113	-0.051567538062226845	0.5656702377146625	0.013198615929400526	-0.045273709414762046	0.53082889785814	0.004173294121743054	-0.047620633842715226	0.462283081001861	-0.023011742144276925	-0.051989820119430985
49	1.6666666666666594	0.5233499444601424	-0.00043452631177287593	-0.1565310129285291	0.5145179835186071	-0.006847995608941004	-0.1363106302046171	0.49035351926231896	-0.011049540348911924	-0.11714697478597133	0.47891024541999194	-0.02122547765405247	-0.07524957887964603	0.5804938241781404	0.055200269199002006	-0.13484917699566662	0.56409183431576	0.05441170197857026	-0.12721027064113977	0.5416963716953824	0.049544822857928605	-0.11687747940912839	0.5082360787567265	0.02895115218258315	-0.10044745754137813	0.5996247347713007	0.058149620188333695	-0.10679061879183274	0.5827543256231642	0.05636676433068788	-0.10044942646188976	0.5558761613820062	0.05083952747670495	-0.09062988014928901	0.5182305357724188	0.02992671909612954	-0.07872991211991526	0.6060991446117784	0.045314860766792364	-0.07780028843322966	0.5890198925375981	0.04245488783494089	-0.07278833238636648	0.5654586388782652	0.03671081408890242	-0.06712680239875339	0.5287776757465276	0.020376239424785947	-0.06239294052175322	0.6004716860171642	0.008152305712128993	-0.059052063433383005	0.5856632228904446	0.011719492286415778	-0.051242799718485374	0.5656100135258822	0.013404044664655945	-0.04525588929106214	0.5308200704223914	0.004208601952149671	-0.04770275323842172	0.4622830810018609	-0.023011742144276925	-0.05198982011943098
50	1.6999999999999926	0.5233309114104936	0.0002473618190421689	-0.1563981873786154	0.5144895480356415	-0.006319150260575612	-0.13623110497232627	0.4903363605645581	-0.010715603780612981	-0.11709698018353981	0.478890242797679	-0.021114129205739185	-0.075255050769975	0.58027812306018	0.05663872547281301	-0.13430884286149095	0.5638589369286465	0.05533582978415541	-0.12677805342063306	0.5415083686818704	0.04995656571166451	-0.11660330771940729	0.5080683382970534	0.029195992874884058	-0.1003429547911571	0.5993708202419319	0.059940560807992704	-0.10612171564243791	0.5824847317660621	0.05742891130717853	-0.1000759210073086	0.5556649327873602	0.05115562066597579	-0.09054944436203106	0.5180896332411794	0.03010739151586106	-0.07866597539631875	0.6059680873744631	0.046497542717165774	-0.07702547753535996	0.588882872447144	0.04311603720740709	-0.07237135555857546	0.5653622045184993	0.03689435931496121	-0.06705638769478943	0.5287007437234257	0.020483058941283105	-0.062438233689539754	0.6006558509584601	0.009033070767272333	-0.05870994025353783	0.5856541919141119	0.012278162549502869	-0.05113236773708975	0.565527248401644	0.013663486000325076	-0.04531867331937834	0.5307704057642446	0.0043421951945036286	-0.04775975475848798	0.4622830810018609	-0.023011742144276925	-0.051989820119430985
51	1.7333333333333258	0.5233320398463485	0.0008821226258167725	-0.15625216537845615	0.5144711889955855	-0.005825940238322835	-0.1361402978666788	0.49032204901005094	-0.010421799979298485	-0.11704796665227937	0.47888060043000047	-0.021015086550618567	-0.0752536424681518	0.5800837937480271	0.05772816378507173	-0.13384102318102792	0.5636560876699099	0.0560554311361815	-0.1264024454610381	0.5413381024845779	0.05030806259909182	-0.11635828670252718	0.5078965426975617	0.029431115321412515	-0.10025079635249354	0.5991180332285992	0.061216158982473345	-0.10568096858922521	0.5822419133252598	0.05820488187032147	-0.0998389837243067	0.5554825010880515	0.05139798899102643	-0.09051108921112955	0.5179521557526199	0.030278048794716295	-0.07861280252322662	0.6058598310316887	0.04722384685901937	-0.07657652670518365	0.5887831295074621	0.04351410283790691	-0.07214662102330988	0.5652958327805184	0.036982812806671594	-0.06706045134580338	0.5286163559706608	0.020604027907965117	-0.062470002544538286	0.6007420430442306	0.009615276350622981	-0.05866296927596718	0.5856353740117537	0.012652098112147958	-0.051208691019024685	0.5654731258486606	0.01383655744973833	-0.04547346442477017	0.5307185229845669	0.004478232628505108	-0.04780215231700282	0.4622830810018608	-0.023011742144276925	-0.05198982011943099
52	1.7666666666666588	0.5232995716784771	0.0014209270789401485	-0.15612970855886038	0.514439283748455	-0.005410868706721916	-0.13605928593899225	0.49028770200486727	-0.010168957976154025	-0.11700983225163095	0.4788643108718891	-0.020955765183441666	-0.0752600906321215	0.579896014144472	0.05848508136096742	-0.1334953570343505	0.5634618361813686	0.0565644978127513	-0.12613131239085687	0.5411568613390701	0.05057954991560454	-0.11619761574998481	0.5076953632071304	0.02964089843021267	-0.10021208758418809	0.5988721618962813	0.06204208088764018	-0.10549422271304484	0.5820138077756394	0.05872069695815507	-0.09977021143283307	0.5553033876660517	0.05157973891721601	-0.0905523089693178	0.5177987315939143	0.030441021573400673	-0.07860645935662883	0.605795679307466	0.047535560494420204	-0.0764354122012352	0.5887245183124764	0.04366333710946402	-0.07212480338806912	0.565254348186742	0.036982306305843315	-0.06715540496671517	0.5285219905390519	0.02073509841434773	-0.0625204323268047	0.6007534576940184	0.009904697395462625	-0.0588847694483655	0.5856120388003967	0.012848658478600061	-0.051463817553301955	0.5654451154400569	0.01392919934211867	-0.045724509875502584	0.5306642708314134	0.0046200800019672306	-0.04784973843267397	0.4622830810018608	-0.023011742144276925	-0.05198982011943098
53	1.7999999999999918	0.5232565963627049	0.0018497718091868842	-0.15604219657694016	0.5143944823562983	-0.005066475916692514	-0.13600152660980291	0.49024317972112996	-0.009982480598450971	-0.11699185856973857	0.4788500194158396	-0.02088494581397493	-0.07526390450436118	0.579702584979159	0.05901093104116517	-0.13327129592542708	0.5632646402059509	0.056955533389950186	-0.12595218996032914	0.5409674396142771	0.05082831873258242	-0.11608801643604445	0.5075043542631864	0.029828002844581647	-0.1001869238512626	0.5986254603313896	0.06264916559570832	-0.10544623145193124	0.5817867771438877	0.05912651283584591	-0.09978498900487294	0.5551201162052132	0.051764622259605764	-0.09061431228364676	0.5176557951597793	0.03058579978771714	-0.07861306033608348	0.6057328180506062	0.04770277705546688	-0.07645332744441787	0.5886673256867196	0.043733024703460965	-0.07220950409254824	0.5652071949027052	0.036984233625877994	-0.0672844597690849	0.5284294650081571	0.02086258868881885	-0.06257150079121734	0.6007356999979566	0.010094341245508454	-0.05919852437323132	0.5855918995914231	0.012996507785598022	-0.05176597846885493	0.5654277686771774	0.013985077801960344	-0.046000341227759825	0.5306128874593037	0.004753313917995383	-0.04789296701646456	0.4622830810018608	-0.023011742144276925	-0.05198982011943099
54	1.8333333333333253	0.523270531735915	0.0021829115863412074	-0.15595043031819722	0.514398320016364	-0.004794779920268888	-0.13593554384732148	0.4902387682998923	-0.0098335351972213	-0.11696854603221858	0.47883770919317803	-0.020830906994919407	-0.07526766277072874	0.5795091895198071	0.05935729264869982	-0.13315092650212215	0.5630678992549004	0.05723735961787346	-0.12585778874324968	0.5407768247642273	0.051036873118584625	-0.11602560698011083	0.5073112386277642	0.02999707524196593	-0.10018207379290822	0.5983923522265306	0.06301049803367098	-0.10552459427091994	0.5815660850451772	0.05940101259820596	-0.09988116024252289	0.5549285299914231	0.05194189613406586	-0.09070446190746718	0.51750392518508	0.030729650753996918	-0.07863849646640962	0.6056740201269545	0.04773645404145377	-0.07659737923129868	0.5886129773652051	0.04372189647685165	-0.07237788311893442	0.5651500599442637	0.03699641612829474	-0.06743426104809827	0.5283307572798276	0.020996368872177262	-0.06263235797674503	0.6006848595518436	0.01025441816120043	-0.059529830972160816	0.5855535798382712	0.013133433724942467	-0.0520628607958868	0.5654006152579998	0.014071617161081518	-0.04624995709235949	0.5305662486466223	0.004876795980029658	-0.04795454420736131	0.462283081001861	-0.023011742144276925	-0.051989820119430985
